<?xml version="1.0" encoding="UTF-8" standalone="yes"?>
<!DOCTYPE svg PUBLIC "-//W3C//DTD SVG 1.1//EN" "http://www.w3.org/Graphics/SVG/1.1/DTD/svg11.dtd">

<svg width="504" height="312" viewBox="0 0 504 312" xmlns="http://www.w3.org/2000/svg" xmlns:xlink="http://www.w3.org/1999/xlink" version="1.1" baseProfile="full">
    <g transform="scale(1,-1) translate(0,-312)">
        <path d="M 6.124257 238.941216 C 5.744103 238.941216 4.993157 238.822278 4.631609 238.704804 C 4.270062 238.587330 3.592623 238.242158 3.285072 238.018709 C 2.977521 237.795261 2.439903 237.257642 2.216454 236.950091 C 1.993006 236.642541 1.647833 235.965102 1.530359 235.603554 C 1.412886 235.242007 1.293947 234.491060 1.293947 234.110907 L 1.293947 6.753220 C 1.293947 6.373066 1.412886 5.622120 1.530359 5.260572 C 1.647833 4.899025 1.993006 4.221586 2.216454 3.914035 C 2.439903 3.606484 2.977521 3.068866 3.285072 2.845417 C 3.592623 2.621969 4.270062 2.276796 4.631609 2.159322 C 4.993157 2.041849 5.744103 1.922910 6.124257 1.922910 C 6.504411 1.922910 7.255357 2.041849 7.616905 2.159323 C 7.978452 2.276796 8.655891 2.621969 8.963442 2.845417 C 9.270993 3.068866 9.808611 3.606485 10.032060 3.914035 C 10.255508 4.221586 10.600681 4.899025 10.718155 5.260572 C 10.835629 5.622120 10.954567 6.373067 10.954567 6.753220 L 10.954567 234.110902 C 10.954567 234.300686 10.924787 234.679082 10.895098 234.866529 C 10.865410 235.053976 10.776802 235.423056 10.718156 235.603551 C 10.659510 235.784046 10.514256 236.134720 10.428096 236.303818 C 10.341936 236.472917 10.143613 236.796551 10.032061 236.950089 C 9.920509 237.103627 9.674001 237.392253 9.539803 237.526450 C 9.405606 237.660647 9.116981 237.907156 8.963443 238.018708 C 8.809905 238.130260 8.486271 238.328584 8.317173 238.414744 C 8.148075 238.500903 7.797401 238.646158 7.616906 238.704804 C 7.436411 238.763450 7.067331 238.852059 6.879884 238.881747 C 6.692437 238.911436 6.314041 238.941216 6.124257 238.941216 Z" transform="scale(1.000000,1.000000) translate(106.000000,72.000000)" fill="#3ebbd3" opacity="1.000000"></path>
        <path d="M 5.848922 237.956856 C 5.468768 237.956856 4.717822 237.837917 4.356274 237.720444 C 3.994726 237.602970 3.317288 237.257797 3.009737 237.034349 C 2.702186 236.810900 2.164568 236.273282 1.941119 235.965731 C 1.717670 235.658180 1.372498 234.980741 1.255024 234.619194 C 1.137550 234.257646 1.018612 233.506700 1.018612 233.126546 L 1.018612 5.768859 C 1.046098 5.406035 1.208550 4.696671 1.341705 4.358046 C 1.474859 4.019421 1.839080 3.389397 2.066084 3.105027 C 2.293088 2.820657 2.826751 2.325893 3.127456 2.121019 C 3.428161 1.916145 4.083898 1.600555 4.431614 1.493360 C 4.779330 1.386166 5.498938 1.277762 5.862802 1.277762 C 6.226666 1.277762 6.946274 1.386166 7.293990 1.493360 C 7.641706 1.600555 8.297443 1.916145 8.598148 2.121019 C 8.898853 2.325893 9.432516 2.820657 9.659520 3.105027 C 9.886524 3.389397 10.250745 4.019421 10.383899 4.358046 C 10.517054 4.696671 10.679506 5.406035 10.706992 5.768859 L 10.706992 233.126541 C 10.706995 233.317022 10.677003 233.696801 10.647100 233.884919 C 10.617197 234.073038 10.527949 234.443398 10.468882 234.624489 C 10.409815 234.805580 10.263526 235.157334 10.176759 235.326905 C 10.089992 235.496476 9.890292 235.820900 9.777977 235.974746 C 9.665663 236.128591 9.417503 236.417638 9.282428 236.551941 C 9.147353 236.686245 8.856889 236.932745 8.702402 237.044176 C 8.547916 237.155606 8.222353 237.353445 8.052287 237.439239 C 7.882222 237.525033 7.529635 237.669304 7.348209 237.727332 C 7.166783 237.785361 6.795918 237.872485 6.607631 237.901310 C 6.419344 237.930134 6.039399 237.957950 5.848922 237.956856 Z" transform="scale(1.000000,1.000000) translate(58.000000,48.000000)" fill="#3ebbd3" opacity="1.000000"></path>
        <path d="M 15.866905 14.418071 C 15.851485 15.119472 15.669760 16.510797 15.504511 17.192630 C 15.339263 17.874462 14.863838 19.194606 14.556426 19.825241 C 14.249014 20.455876 13.501943 21.643602 13.066628 22.193787 C 12.631313 22.743971 11.647250 23.744186 11.104224 24.188399 C 10.561198 24.632612 9.385790 25.398918 8.760243 25.716554 C 8.420738 25.922341 7.736132 26.324540 7.391097 26.520913 C 7.046061 26.717287 6.350655 27.100508 6.000350 27.287319 C 5.650045 27.474130 4.944364 27.838084 4.589055 28.015192 C 4.233745 28.192300 3.518323 28.536711 3.158278 28.703981 C 2.798232 28.871252 2.073610 29.195860 1.709101 29.353167 L 1.709101 1.898129 C 11.092124 3.147334 15.866905 7.283649 15.866905 14.418071 Z" transform="scale(1.000000,1.000000) translate(108.000000,156.000000)" fill="#3ebbd3" opacity="1.000000"></path>
        <path d="M 61.518301 33.226013 Q 40.698000 33.226013 40.698000 47.661421 C 40.699173 47.857190 40.709408 48.248601 40.718467 48.444164 C 40.727526 48.639726 40.753520 49.030407 40.770451 49.225446 C 40.787381 49.420485 40.829093 49.809802 40.853867 50.004000 C 40.878641 50.198199 40.936003 50.585519 40.968581 50.778562 C 41.001158 50.971605 41.074077 51.356300 41.114405 51.547873 L 41.530811 54.046310 L 3.887707 54.046310 L 3.249218 50.715061 C 3.130092 50.083801 2.914351 48.817241 2.817770 48.182141 C 2.721188 47.547040 2.550665 46.273603 2.476749 45.635468 C 2.402834 44.997333 2.277744 43.718633 2.226589 43.078272 C 2.175434 42.437910 2.095935 41.155568 2.067605 40.513791 C 2.039275 39.872014 2.005469 38.587656 2.000000 37.945277 Q 2.000000 22.454974 10.994369 13.682688 Q 23.125664 1.940038 56.188304 1.967799 C 60.407885 1.967799 64.349862 2.162122 68.153036 2.467486 L 68.153036 33.697935 C 67.823494 33.651103 67.163160 33.566695 66.832434 33.529129 C 66.501707 33.491562 65.839265 33.425716 65.507614 33.397444 C 65.175964 33.369172 64.511935 33.321940 64.179622 33.302985 C 63.847308 33.284030 63.182215 33.255450 62.849501 33.245827 C 62.516787 33.236204 61.851154 33.226297 61.518301 33.226013 Z" transform="scale(1.000000,1.000000) translate(-2.000000,89.000000)" fill="#3ebbd3" opacity="1.000000"></path>
        <path d="M 51.761104 49.198327 Q 39.130124 58.525823 14.423363 58.525823 C 9.926178 58.525823 5.734357 58.303740 1.709100 57.942855 L 1.709100 26.795684 C 2.007758 26.828144 2.605726 26.886757 2.905002 26.912908 C 3.204279 26.939058 3.803350 26.985039 4.103112 27.004867 C 4.402874 27.024695 5.002782 27.058024 5.302896 27.071522 C 5.603009 27.085020 6.203487 27.105680 6.503819 27.112842 C 6.804150 27.120003 7.404931 27.127987 7.705347 27.128809 C 19.586799 27.128809 25.499763 22.603863 25.499763 13.526212 C 25.522174 12.860054 25.461270 11.528377 25.378148 10.867045 C 25.295026 10.205714 25.024486 8.900385 24.837919 8.260493 C 24.651352 7.620602 24.177972 6.374413 23.892647 5.772036 C 23.607322 5.169659 22.942993 4.013916 22.566078 3.464186 C 22.189163 2.914455 21.350574 1.878191 20.891537 1.394917 L 57.923906 1.394917 L 59.617291 3.921114 C 59.841123 4.282617 60.264816 5.019926 60.464447 5.395336 C 60.664079 5.770746 61.038482 6.534267 61.213052 6.921966 C 61.387622 7.309665 61.711122 8.096106 61.859878 8.494423 C 62.008635 8.892741 62.279838 9.698712 62.402139 10.105932 C 62.524440 10.513151 62.742178 11.335180 62.837497 11.749547 C 62.997271 12.316343 63.285060 13.458411 63.412962 14.033238 C 63.540865 14.608065 63.764488 15.764411 63.860121 16.345479 C 63.955754 16.926547 64.114515 18.093567 64.177580 18.679065 C 64.240646 19.264564 64.334049 20.438624 64.364351 21.026729 C 64.394652 21.614834 64.422408 22.792277 64.419851 23.381156 C 64.478661 24.879370 64.299477 27.872746 64.062361 29.353246 C 63.825245 30.833745 63.060613 33.733357 62.536841 35.138265 C 62.013070 36.543172 60.692880 39.235664 59.902929 40.510057 C 59.112978 41.784451 57.288841 44.164564 56.263592 45.258624 C 55.238343 46.352683 52.981571 48.327371 51.761104 49.198327 Z" transform="scale(1.000000,1.000000) translate(108.000000,206.000000)" fill="#3ebbd3" opacity="1.000000"></path>
        <path d="M 1.298482 44.292635 C 1.261139 43.177326 1.349466 40.947205 1.474901 39.838343 C 1.600337 38.729481 2.012413 36.535984 2.297954 35.457199 C 2.583496 34.378415 3.310539 32.268286 3.750101 31.242569 C 4.189664 30.216853 5.216180 28.235060 5.800396 27.284270 C 6.384612 26.333481 7.688726 24.522259 8.405145 23.666658 C 9.098147 22.855977 10.563778 21.306220 11.334561 20.569097 C 12.105343 19.831974 13.718956 18.436955 14.559752 17.780818 C 15.400549 17.124680 17.145885 15.898455 18.048224 15.329914 C 18.950563 14.761373 20.810036 13.716297 21.764827 13.241080 C 22.719617 12.765863 24.674492 11.912467 25.672113 11.535363 C 32.445651 8.953646 39.191428 6.705053 45.964966 4.734065 C 46.486324 4.586647 47.524827 4.277305 48.041872 4.115410 C 48.558917 3.953516 49.588393 3.615343 50.100724 3.439098 C 50.613055 3.262853 51.632704 2.896113 52.139922 2.705653 C 52.647141 2.515194 53.656170 2.120172 54.157882 1.915647 C 54.659594 1.711122 55.657218 1.288123 56.153034 1.069691 L 56.153034 35.770193 C 55.671832 35.935783 54.716020 36.285528 54.241589 36.469619 C 53.767157 36.653709 52.825598 37.040187 52.358647 37.242502 C 51.891696 37.444817 50.965801 37.867448 50.507031 38.087684 C 50.048260 38.307921 49.139416 38.766071 48.689514 39.003899 C 48.239611 39.241727 47.349181 39.734711 46.908820 39.989774 C 46.277081 40.296996 45.089528 41.047756 44.541040 41.486663 C 43.992551 41.925571 42.999678 42.919616 42.561417 43.468622 C 42.123156 44.017628 41.373797 45.206065 41.067320 45.838166 C 40.760843 46.470267 40.291855 47.794643 40.132236 48.478750 C 39.972618 49.162857 39.807068 50.558032 39.802158 51.260496 C 39.802158 59.366533 45.354238 63.974760 56.153034 65.140697 L 56.153034 96.315631 Q 1.354004 91.485316 1.298482 44.292635 Z" transform="scale(1.000000,1.000000) translate(10.000000,149.000000)" fill="#3ebbd3" opacity="1.000000"></path>
        <path d="M 8.760249 56.143590 C 9.385797 55.825954 10.561205 55.059648 11.104231 54.615435 C 11.647257 54.171222 12.631320 53.171007 13.066635 52.620823 C 13.501950 52.070638 14.249021 50.882912 14.556433 50.252277 C 14.863844 49.621642 15.339269 48.301498 15.504518 47.619666 C 15.669766 46.937833 15.851492 45.546509 15.866912 44.845107 C 15.866912 37.710684 11.092123 33.574384 1.709108 32.325165 L 1.709108 1.011433 C 17.754620 2.343932 30.107996 6.563513 38.685961 13.337051 Q 54.592670 26.217876 54.592670 52.784580 C 54.640897 53.939941 54.569628 56.251577 54.450319 57.401773 C 54.331010 58.551969 53.926300 60.829018 53.641963 61.949882 C 53.357626 63.070747 52.627978 65.265366 52.184586 66.333350 C 51.741195 67.401333 50.701940 69.467414 50.108809 70.460078 C 49.515679 71.452742 48.188651 73.346874 47.458244 74.243362 C 46.766667 75.051565 45.299677 76.592289 44.526332 77.322638 C 43.752988 78.052987 42.130958 79.429543 41.284558 80.073810 C 40.438159 80.718078 38.679363 81.914958 37.769444 82.465885 C 36.859526 83.016812 34.983777 84.020533 34.020591 84.471913 C 33.057404 84.923292 31.085836 85.722546 30.080233 86.069294 C 29.076253 86.418684 27.061192 87.096717 26.050219 87.425323 C 25.039246 87.753930 23.010628 88.390252 21.993091 88.697935 C 20.975554 89.005617 18.934242 89.599958 17.910575 89.886586 C 16.886908 90.173213 14.833770 90.725320 13.804408 90.990771 C 12.775047 91.256221 10.710957 91.765859 9.676339 92.010020 C 9.270732 92.108471 8.461613 92.313810 8.058144 92.420686 C 7.654675 92.527562 6.850007 92.749704 6.448851 92.864958 C 6.047695 92.980213 5.247827 93.219062 4.849158 93.342644 C 4.450489 93.466227 3.655768 93.721680 3.259759 93.853537 C 2.863750 93.985394 2.074520 94.257340 1.681343 94.397414 L 1.681343 59.780196 C 2.047273 59.623063 2.774729 59.298731 3.136186 59.131564 C 3.497643 58.964396 4.215876 58.620122 4.572584 58.443048 C 4.929292 58.265974 5.637755 57.902019 5.989443 57.715173 C 6.341131 57.528327 7.039286 57.144969 7.385686 56.948493 C 7.732086 56.752017 8.419401 56.349546 8.760249 56.143590 Z" transform="scale(1.000000,1.000000) translate(108.000000,109.000000)" fill="#3ebbd3" opacity="1.000000"></path>
        <path d="M 117.541261 121.097117 Q 119.549255 115.073133 119.549255 105.104875 Q 119.549255 95.136616 117.110976 85.957212 Q 114.672697 76.777809 109.724425 68.530688 Q 104.776152 60.283568 95.955319 55.191867 Q 87.134486 50.100167 75.660231 50.100167 Q 58.448849 50.100167 52.711722 59.709855 Q 42.384893 50.100167 29.619785 50.100167 Q 12.408403 50.100167 5.954135 57.415004 Q 1.651289 62.291562 1.651289 71.901250 Q 1.651289 76.921237 2.798715 83.088649 L 9.539839 121.097117 L 33.922630 121.097117 L 27.181506 82.945220 Q 26.751221 80.793798 26.751221 79.072659 Q 26.751221 70.897253 35.213484 70.897253 Q 41.094039 70.897253 44.106031 75.988954 Q 47.118023 81.080654 49.269446 93.845762 L 54.146004 121.097117 L 78.528795 121.097117 L 71.787670 82.945220 Q 71.357386 80.793798 71.357386 79.072659 Q 71.357386 70.897253 79.819649 70.897253 Q 94.736180 70.897253 94.736180 102.164597 Q 94.736180 109.479434 93.588754 118.371982 L 93.158470 121.097117 Z M 157.988008 70.466969 Q 161.286856 70.466969 163.868564 71.901250 L 163.151423 55.693866 Q 156.410298 50.100167 147.804607 50.100167 Q 134.752643 50.100167 130.880082 56.124150 Q 128.298374 60.140139 128.298374 64.658127 Q 128.298374 69.176115 128.872087 72.618391 L 137.477778 121.097117 L 161.860569 121.097117 L 153.828591 75.917239 Q 153.685163 75.056670 153.685163 74.339529 Q 153.685163 70.466969 157.988008 70.466969 Z M 140.346342 144.475911 Q 140.346342 153.655314 144.434045 157.886446 Q 148.521748 162.117577 157.127439 162.117577 Q 169.175406 162.117577 169.175406 151.503892 Q 169.175406 142.467916 165.087703 138.308499 Q 161.000000 134.149082 152.250881 134.149082 Q 140.346342 134.149082 140.346342 144.475911 Z M 235.008942 49.526454 Q 235.008942 28.585939 224.323543 15.175404 Q 213.638143 1.764869 195.351050 1.764869 Q 177.063956 1.764869 171.039973 10.800845 Q 167.310840 16.537972 167.310840 24.785092 Q 167.310840 33.032213 168.745122 41.207619 L 187.103929 145.049623 L 211.486720 145.049623 L 207.183875 121.097117 L 242.897492 121.097117 L 239.311788 100.873743 L 211.199864 100.873743 Q 221.383265 92.698337 228.196104 79.646372 Q 235.008942 66.594408 235.008942 49.526454 Z M 199.008468 22.275099 Q 203.454742 22.275099 206.610162 29.446508 Q 209.765582 36.617917 209.765582 48.307314 Q 209.765582 59.996711 207.399017 71.901250 Q 205.032452 83.805790 201.733604 90.546914 L 193.127913 41.351047 Q 192.267344 36.331061 192.267344 32.601928 Q 192.267344 22.275099 199.008468 22.275099 Z M 277.750541 50.100167 Q 261.112871 50.100167 253.798034 57.558432 Q 248.347763 63.008703 248.347763 72.188107 Q 248.347763 75.200099 248.921476 78.642375 L 258.674592 134.149082 L 284.921950 145.049623 L 280.762532 121.097117 L 320.348711 121.097117 L 316.763006 100.873743 L 277.176828 100.873743 L 274.308264 84.666359 Q 273.734552 81.941223 273.734552 79.789800 Q 273.734552 70.753825 282.340242 70.753825 Q 286.929944 70.753825 290.013650 74.626386 Q 293.097356 78.498947 294.244782 84.953215 L 318.053860 84.953215 Q 312.029876 50.100167 277.750541 50.100167 Z" transform="scale(1.000000,1.000000) translate(183.000000,131.000000)" fill="#ffffff" opacity="1.000000"></path>
        <path d="M 60.011044 112.726555 Q 74.640719 112.726555 80.234418 104.981433 Q 84.250407 99.674590 84.250407 91.499184 Q 84.250407 88.200335 83.533266 84.471203 L 80.664702 67.690105 Q 78.226423 54.064428 70.194445 46.964733 Q 62.162467 39.865038 50.114500 39.865038 Q 38.066532 39.865038 33.333402 46.319306 L 25.588280 1.999998 L 1.205489 1.999998 L 20.424866 110.861988 L 42.512806 110.861988 L 41.795665 106.989427 Q 48.536790 112.726555 60.011044 112.726555 Z M 45.094513 60.518696 Q 49.110502 60.518696 52.552779 63.100404 Q 55.995055 65.682111 56.855624 70.845525 L 58.720191 81.602639 Q 59.007047 83.036921 59.007047 85.188344 Q 59.007047 87.339766 57.142481 89.778045 Q 55.277914 92.216325 50.688212 92.216325 Q 43.229947 92.216325 40.935096 88.630620 L 36.632250 64.534685 Q 38.640245 60.518696 45.094513 60.518696 Z M 119.533740 63.960973 Q 119.533740 60.231840 123.334587 60.231840 Q 127.135434 60.231840 129.717141 61.666122 L 129.000000 45.458737 Q 122.115447 39.865038 113.509756 39.865038 Q 100.457792 39.865038 96.585231 45.889022 Q 94.146952 49.761583 94.146952 54.351284 Q 94.146952 58.940986 94.720664 62.383263 L 110.354336 150.735023 L 134.737127 150.735023 L 119.677168 65.682111 Q 119.533740 64.821542 119.533740 63.960973 Z M 168.873035 60.231840 Q 172.171883 60.231840 174.753590 61.666122 L 174.036449 45.458737 Q 167.295325 39.865038 158.689634 39.865038 Q 145.637669 39.865038 141.765108 45.889022 Q 139.183401 49.905011 139.183401 54.422998 Q 139.183401 58.940986 139.757114 62.383263 L 148.362805 110.861988 L 172.745596 110.861988 L 164.713617 65.682111 Q 164.570189 64.821542 164.570189 64.104401 Q 164.570189 60.231840 168.873035 60.231840 Z M 151.231368 134.240782 Q 151.231368 143.420186 155.319072 147.651317 Q 159.406775 151.882449 168.012466 151.882449 Q 180.060433 151.882449 180.060433 141.268763 Q 180.060433 132.232788 175.972730 128.073370 Q 171.885027 123.913953 163.135907 123.913953 Q 151.231368 123.913953 151.231368 134.240782 Z M 214.196340 39.865038 Q 197.558671 39.865038 190.243834 47.323303 Q 184.793563 52.773574 184.793563 61.952978 Q 184.793563 64.964970 185.367276 68.407246 L 195.120392 123.913953 L 221.367750 134.814495 L 217.208332 110.861988 L 256.794511 110.861988 L 253.208806 90.638615 L 213.622628 90.638615 L 210.754064 74.431230 Q 210.180351 71.706094 210.180351 69.554672 Q 210.180351 60.518696 218.786042 60.518696 Q 223.375744 60.518696 226.459450 64.391257 Q 229.543156 68.263818 230.690581 74.718086 L 254.499660 74.718086 Q 248.475676 39.865038 214.196340 39.865038 Z" transform="scale(1.000000,1.000000) translate(140.000000,-2.000000)" fill="#ffffff" opacity="1.000000"></path>
    </g>
</svg>