<?xml version="1.0" encoding="UTF-8" standalone="yes"?>
<!DOCTYPE svg PUBLIC "-//W3C//DTD SVG 1.1//EN" "http://www.w3.org/Graphics/SVG/1.1/DTD/svg11.dtd">

<svg width="223" height="338" viewBox="0 0 223 338" xmlns="http://www.w3.org/2000/svg" xmlns:xlink="http://www.w3.org/1999/xlink" version="1.1" baseProfile="full">
    <g transform="scale(1,-1) translate(0,-338)">
        <path d="M 7.826608 307.980660 C 7.335578 307.980660 6.365610 307.827032 5.898612 307.675296 C 5.431615 307.523559 4.556594 307.077714 4.159342 306.789093 C 3.762091 306.500473 3.067669 305.806052 2.779049 305.408801 C 2.490429 305.011549 2.044583 304.136528 1.892847 303.669530 C 1.741110 303.202533 1.587482 302.232564 1.587482 301.741534 L 1.587482 8.072320 C 1.587482 7.581290 1.741110 6.611321 1.892847 6.144324 C 2.044583 5.677327 2.490429 4.802305 2.779049 4.405053 C 3.067670 4.007802 3.762091 3.313381 4.159342 3.024761 C 4.556594 2.736141 5.431615 2.290295 5.898612 2.138558 C 6.365610 1.986822 7.335579 1.833194 7.826608 1.833194 C 8.317638 1.833194 9.287607 1.986822 9.754604 2.138558 C 10.221602 2.290295 11.096623 2.736141 11.493875 3.024761 C 11.891126 3.313381 12.585547 4.007802 12.874167 4.405054 C 13.162788 4.802305 13.608633 5.677327 13.760370 6.144324 C 13.912106 6.611321 14.065734 7.581290 14.065734 8.072320 L 14.065734 301.741528 C 14.065735 301.986664 14.027269 302.475425 13.988921 302.717543 C 13.950574 302.959661 13.836122 303.436387 13.760371 303.669526 C 13.684620 303.902664 13.497002 304.355617 13.385712 304.574035 C 13.274423 304.792453 13.018257 305.210478 12.874170 305.408798 C 12.730082 305.607117 12.411676 305.979923 12.238339 306.153261 C 12.065002 306.326598 11.692196 306.645005 11.493877 306.789092 C 11.295557 306.933179 10.877532 307.189346 10.659114 307.300636 C 10.440696 307.411925 9.987744 307.599544 9.754605 307.675296 C 9.521467 307.751047 9.044741 307.865499 8.802623 307.903846 C 8.560505 307.942194 8.071744 307.980660 7.826608 307.980660 Z" transform="scale(1.000000,1.000000) translate(137.000000,30.000000)" fill="#3ebbd3" opacity="1.000000"></path>
        <path d="M 7.471207 307.709319 C 6.980177 307.709319 6.010208 307.555691 5.543211 307.403954 C 5.076214 307.252218 4.201192 306.806372 3.803941 306.517752 C 3.406689 306.229132 2.712268 305.534711 2.423648 305.137459 C 2.135028 304.740208 1.689182 303.865186 1.537446 303.398189 C 1.385709 302.931192 1.232081 301.961223 1.232081 301.470193 L 1.232081 7.800978 C 1.267583 7.332332 1.477417 6.416074 1.649407 5.978685 C 1.821397 5.541296 2.291848 4.727518 2.585061 4.360208 C 2.878273 3.992899 3.567585 3.353831 3.955994 3.089202 C 4.344403 2.824574 5.191393 2.416939 5.640524 2.278480 C 6.089656 2.140021 7.019146 2.000000 7.489136 2.000000 C 7.959125 2.000000 8.888615 2.140021 9.337747 2.278480 C 9.786878 2.416939 10.633868 2.824574 11.022277 3.089202 C 11.410686 3.353831 12.099998 3.992899 12.393210 4.360208 C 12.686423 4.727518 13.156874 5.541296 13.328864 5.978685 C 13.500854 6.416074 13.710688 7.332332 13.746190 7.800978 L 13.746190 301.470187 C 13.746194 301.716223 13.707454 302.206769 13.668830 302.449755 C 13.630205 302.692740 13.514928 303.171120 13.438633 303.405028 C 13.362338 303.638936 13.173382 304.093284 13.061309 304.312312 C 12.949236 304.531341 12.691290 304.950387 12.546218 305.149103 C 12.401146 305.347819 12.080607 305.721170 11.906135 305.894645 C 11.731664 306.068120 11.356483 306.386514 11.156939 306.530445 C 10.957394 306.674376 10.536877 306.929917 10.317210 307.040733 C 10.097543 307.151550 9.642120 307.337899 9.407779 307.412852 C 9.173437 307.487806 8.694405 307.600341 8.451202 307.637572 C 8.207999 307.674804 7.717239 307.710733 7.471207 307.709319 Z" transform="scale(1.000000,1.000000) translate(75.000000,-2.000000)" fill="#3ebbd3" opacity="1.000000"></path>
        <path d="M 19.994137 17.472296 C 19.974220 18.378270 19.739492 20.175391 19.526047 21.056088 C 19.312602 21.936784 18.698513 23.641964 18.301442 24.456531 C 17.904370 25.271098 16.939407 26.805238 16.377127 27.515891 C 15.814847 28.226543 14.543770 29.518482 13.842365 30.092255 C 13.140959 30.666028 11.622729 31.655836 10.814734 32.066114 C 10.376208 32.331922 9.491929 32.851426 9.046260 33.105074 C 8.600591 33.358722 7.702362 33.853714 7.249886 34.095011 C 6.797411 34.336308 5.885909 34.806413 5.426970 35.035176 C 4.968030 35.263940 4.043946 35.708802 3.578890 35.924859 C 3.113833 36.140916 2.177866 36.560200 1.707044 36.763387 L 1.707044 1.300767 C 13.826735 2.914317 19.994137 8.257036 19.994137 17.472296 Z" transform="scale(1.000000,1.000000) translate(140.000000,139.000000)" fill="#3ebbd3" opacity="1.000000"></path>
        <path d="M 77.877510 42.224461 Q 50.984725 42.224461 50.984725 60.870125 C 50.986240 61.122992 50.999460 61.628563 51.011161 61.881163 C 51.022862 62.133764 51.056438 62.638392 51.078306 62.890316 C 51.100175 63.142241 51.154053 63.645106 51.186052 63.895945 C 51.218052 64.146784 51.292145 64.647070 51.334223 64.896416 C 51.376302 65.145763 51.470490 65.642658 51.522579 65.890107 L 52.060435 69.117241 L 3.438279 69.117241 L 2.613567 64.814395 C 2.459697 63.999020 2.181033 62.363053 2.056282 61.542718 C 1.931532 60.722384 1.711273 59.077534 1.615799 58.253279 C 1.520326 57.429024 1.358752 55.777377 1.292677 54.950246 C 1.226601 54.123115 1.123917 52.466764 1.087323 51.637805 C 1.050730 50.808847 1.007065 49.149890 1.000000 48.320154 Q 1.000000 28.311922 12.617683 16.981096 Q 28.287212 1.813566 70.992957 1.849423 C 76.443228 1.849423 81.534929 2.100423 86.447344 2.494850 L 86.447344 42.834025 C 86.021686 42.773533 85.168759 42.664508 84.741572 42.615984 C 84.314385 42.567460 83.458733 42.482410 83.030353 42.445892 C 82.601973 42.409374 81.744272 42.348367 81.315036 42.323883 C 80.885800 42.299400 80.026725 42.262483 79.596970 42.250054 C 79.167216 42.237624 78.307444 42.224827 77.877510 42.224461 Z" transform="scale(1.000000,1.000000) translate(-1.000000,52.000000)" fill="#3ebbd3" opacity="1.000000"></path>
        <path d="M 66.357299 62.979705 Q 50.042346 75.027675 18.129569 75.027675 C 12.320728 75.027675 6.906313 74.740818 1.707042 74.274677 L 1.707042 34.043070 C 2.092807 34.084997 2.865180 34.160706 3.251744 34.194483 C 3.638308 34.228260 4.412105 34.287652 4.799296 34.313263 C 5.186487 34.338875 5.961366 34.381924 6.349011 34.399359 C 6.736656 34.416794 7.512271 34.443480 7.900197 34.452730 C 8.288124 34.461980 9.064129 34.472293 9.452165 34.473354 C 24.798981 34.473354 32.436531 28.628656 32.436531 16.903401 C 32.465478 16.042951 32.386811 14.322874 32.279445 13.468657 C 32.172080 12.614441 31.822634 10.928398 31.581652 10.101874 C 31.340671 9.275350 30.729224 7.665697 30.360680 6.887629 C 29.992137 6.109561 29.134049 4.616733 28.647202 3.906667 C 28.160355 3.196601 27.077182 1.858099 26.484261 1.233872 L 74.317554 1.233872 L 76.504834 4.496864 C 76.793950 4.963803 77.341218 5.916158 77.599074 6.401060 C 77.856930 6.885963 78.340533 7.872173 78.566018 8.372949 C 78.791503 8.873725 79.209356 9.889541 79.401499 10.404032 C 79.593641 10.918524 79.943945 11.959566 80.101916 12.485556 C 80.259888 13.011546 80.541131 14.073329 80.664251 14.608551 C 80.870625 15.340659 81.242351 16.815825 81.407558 17.558307 C 81.572765 18.300790 81.861610 19.794397 81.985136 20.544940 C 82.108661 21.295483 82.313726 22.802879 82.395186 23.559144 C 82.476645 24.315410 82.597291 25.831899 82.636430 26.591531 C 82.675569 27.351164 82.711420 28.872022 82.708117 29.632655 C 82.784079 31.567840 82.552635 35.434270 82.246361 37.346574 C 81.940088 39.258879 80.952441 43.004196 80.275906 44.818861 C 79.599370 46.633527 77.894132 50.111315 76.873782 51.757401 C 75.853432 53.403486 73.497265 56.477787 72.172990 57.890942 C 70.848715 59.304097 67.933730 61.854726 66.357299 62.979705 Z" transform="scale(1.000000,1.000000) translate(140.000000,203.000000)" fill="#3ebbd3" opacity="1.000000"></path>
        <path d="M 1.593817 57.018494 C 1.545582 55.577892 1.659671 52.697331 1.821691 51.265057 C 1.983711 49.832782 2.515974 46.999525 2.884797 45.606101 C 3.253620 44.212677 4.192714 41.487103 4.760480 40.162225 C 5.328246 38.837346 6.654158 36.277540 7.408767 35.049442 C 8.163376 33.821343 9.847850 31.481857 10.773221 30.376710 C 11.668345 29.329584 13.561445 27.327822 14.557035 26.375709 C 15.552626 25.423596 17.636867 23.621703 18.722892 22.774196 C 19.808917 21.926688 22.063300 20.342820 23.228817 19.608457 C 24.394334 18.874094 26.796144 17.524210 28.029410 16.910391 C 29.262676 16.296571 31.787714 15.194272 33.076303 14.707181 C 41.825423 11.372476 50.538684 8.468055 59.287804 5.922204 C 59.961221 5.731791 61.302616 5.332225 61.970463 5.123112 C 62.638311 4.914000 63.968046 4.477195 64.629804 4.249546 C 65.291562 4.021897 66.608603 3.548192 67.263758 3.302184 C 67.918913 3.056175 69.222237 2.545939 69.870279 2.281762 C 70.518321 2.017585 71.806914 1.471214 72.447340 1.189074 L 72.447340 46.010382 C 71.825791 46.224268 70.591205 46.676022 69.978400 46.913804 C 69.365595 47.151587 68.149419 47.650785 67.546277 47.912108 C 66.943134 48.173430 65.747191 48.719326 65.154614 49.003798 C 64.562038 49.288269 63.388119 49.880044 62.806997 50.187237 C 62.225875 50.494430 61.075741 51.131198 60.506944 51.460653 C 59.690950 51.857480 58.157034 52.827208 57.448572 53.394129 C 56.740110 53.961049 55.457654 55.245018 54.891569 55.954148 C 54.325485 56.663278 53.357566 58.198337 52.961702 59.014798 C 52.565837 59.831259 51.960064 61.541904 51.753890 62.425539 C 51.547716 63.309173 51.333882 65.111268 51.327540 66.018614 C 51.327540 76.488872 58.498949 82.441141 72.447340 83.947137 L 72.447340 124.214605 Q 1.665533 117.975473 1.593817 57.018494 Z" transform="scale(1.000000,1.000000) translate(13.000000,129.000000)" fill="#3ebbd3" opacity="1.000000"></path>
        <path d="M 10.814742 72.659452 C 11.622738 72.249173 13.140968 71.259365 13.842373 70.685592 C 14.543779 70.111819 15.814856 68.819880 16.377135 68.109228 C 16.939415 67.398576 17.904378 65.864435 18.301450 65.049868 C 18.698522 64.235301 19.312610 62.530121 19.526055 61.649425 C 19.739501 60.768728 19.974228 58.971607 19.994146 58.065633 C 19.994146 48.850373 13.826734 43.507673 1.707053 41.894105 L 1.707053 1.447356 C 22.432426 3.168494 38.388809 8.618765 49.468637 17.367884 Q 70.014725 34.005553 70.014725 68.320747 C 70.077017 69.813083 69.984961 72.798935 69.830855 74.284599 C 69.676748 75.770262 69.154000 78.711439 68.786732 80.159217 C 68.419465 81.606995 67.477007 84.441700 66.904295 85.821174 C 66.331583 87.200647 64.989217 89.869325 64.223093 91.151510 C 63.456969 92.433696 61.742899 94.880275 60.799460 96.038234 C 59.906175 97.082159 58.011321 99.072252 57.012421 100.015616 C 56.013522 100.958980 53.918408 102.737025 52.825146 103.569200 C 51.731884 104.401376 49.460115 105.947340 48.284808 106.658952 C 47.109501 107.370563 44.686669 108.667031 43.442558 109.250061 C 42.198447 109.833091 39.651847 110.865456 38.352948 111.313336 C 37.056146 111.764631 34.453369 112.640420 33.147534 113.064868 C 31.841698 113.489316 29.221410 114.311230 27.907096 114.708651 C 26.592783 115.106073 23.956098 115.873761 22.633867 116.243986 C 21.311635 116.614212 18.659676 117.327348 17.330089 117.670220 C 16.000502 118.013092 13.334396 118.671372 11.998019 118.986745 C 11.474113 119.113911 10.429004 119.379139 9.907859 119.517187 C 9.386714 119.655234 8.347355 119.942167 7.829198 120.091036 C 7.311040 120.239906 6.277881 120.548418 5.762936 120.708045 C 5.247990 120.867672 4.221479 121.197631 3.709970 121.367945 C 3.198460 121.538260 2.179042 121.889522 1.671190 122.070451 L 1.671190 77.356716 C 2.143848 77.153753 3.083475 76.734826 3.550355 76.518903 C 4.017235 76.302979 4.944949 75.858293 5.405695 75.629573 C 5.866441 75.400854 6.781536 74.930747 7.235798 74.689405 C 7.690060 74.448063 8.591839 73.952894 9.039271 73.699113 C 9.486703 73.445333 10.374481 72.925477 10.814742 72.659452 Z" transform="scale(1.000000,1.000000) translate(140.000000,77.000000)" fill="#3ebbd3" opacity="1.000000"></path>
    </g>
</svg>