<svg xmlns="http://www.w3.org/2000/svg" viewBox="0 0 182 119.38"><defs><style>.a{font-size:51.66px;}.a,.c{font-family:FugazOne-Regular, Fugaz One;}.b{fill:#3ebbd3;}.c{font-size:51.66px;}</style></defs><text class="a" transform="translate(64.79 46.17)">wift</text><path class="b" d="M45.39,35.62a1.74,1.74,0,0,0-1.74,1.74v81.9a1.74,1.74,0,0,0,3.48,0V37.36A1.74,1.74,0,0,0,45.39,35.62Z" transform="translate(-5 -35.62)"/><path class="b" d="M28,44.62a1.74,1.74,0,0,0-1.74,1.74v81.9a1.75,1.75,0,0,0,3.49,0V46.36A1.74,1.74,0,0,0,28,44.62Z" transform="translate(-5 -35.62)"/><path class="b" d="M49.62,86.24a4.68,4.68,0,0,0-2.56-4.07,20.8,20.8,0,0,0-2.54-1.31v9.89C47.9,90.3,49.62,88.81,49.62,86.24Z" transform="translate(-5 -35.62)"/><path class="b" d="M26.44,103.6q-7.5,0-7.5-5.2A7,7,0,0,1,19.09,97l.15-.9H5.68l-.23,1.2a26,26,0,0,0-.45,4.6q0,5.58,3.24,8.74,4.37,4.23,16.28,4.22c1.52,0,2.94-.07,4.31-.18V103.43A17.09,17.09,0,0,1,26.44,103.6Z" transform="translate(-5 -35.62)"/><path class="b" d="M62.55,55.7Q58,52.34,49.1,52.34c-1.62,0-3.13.08-4.58.21V63.77a20.51,20.51,0,0,1,2.16-.12c4.28,0,6.41,1.63,6.41,4.9a6.05,6.05,0,0,1-1.66,4.37H64.77l.61-.91a9.33,9.33,0,0,0,1.16-2.82A15.2,15.2,0,0,0,67.11,65,10.9,10.9,0,0,0,62.55,55.7Z" transform="translate(-5 -35.62)"/><path class="b" d="M9.07,78a11,11,0,0,0,2.56,7.43,15.3,15.3,0,0,0,6.22,4.37c2.44.93,4.87,1.74,7.31,2.45a28,28,0,0,1,3.67,1.32V81.07a18.94,18.94,0,0,1-3.33-1.52,4.55,4.55,0,0,1-2.56-4.06c0-2.92,2-4.58,5.89-5V59.26Q9.09,61,9.07,78Z" transform="translate(-5 -35.62)"/><path class="b" d="M47.06,88.14a4.68,4.68,0,0,1,2.56,4.07c0,2.57-1.72,4.06-5.1,4.51V108c5.78-.48,10.23-2,13.32-4.44q5.73-4.64,5.73-14.21A11.48,11.48,0,0,0,61,81.62a14.43,14.43,0,0,0-6.26-4.26,74.25,74.25,0,0,0-7.35-2.14,28.88,28.88,0,0,1-2.88-.86V86.83A20.8,20.8,0,0,1,47.06,88.14Z" transform="translate(-5 -35.62)"/><text class="c" transform="translate(52.97 97.58)">plit</text></svg>