<?xml version="1.0" encoding="UTF-8" standalone="yes"?>
<!DOCTYPE svg PUBLIC "-//W3C//DTD SVG 1.1//EN" "http://www.w3.org/Graphics/SVG/1.1/DTD/svg11.dtd">

<svg width="504" height="312" viewBox="0 0 504 312" xmlns="http://www.w3.org/2000/svg" xmlns:xlink="http://www.w3.org/1999/xlink" version="1.1" baseProfile="full">
    <g transform="scale(1,-1) translate(0,-312)">
        <path d="M 6.124260 238.941227 C 5.744106 238.941227 4.993160 238.822288 4.631612 238.704815 C 4.270065 238.587341 3.592626 238.242168 3.285075 238.018720 C 2.977524 237.795271 2.439906 237.257653 2.216457 236.950102 C 1.993009 236.642551 1.647836 235.965112 1.530362 235.603565 C 1.412888 235.242017 1.293950 234.491071 1.293950 234.110917 L 1.293950 6.753225 C 1.293950 6.373072 1.412888 5.622125 1.530362 5.260577 C 1.647836 4.899030 1.993009 4.221591 2.216457 3.914040 C 2.439906 3.606489 2.977524 3.068871 3.285075 2.845422 C 3.592626 2.621974 4.270065 2.276801 4.631612 2.159328 C 4.993160 2.041854 5.744106 1.922915 6.124260 1.922915 C 6.504414 1.922915 7.255360 2.041854 7.616908 2.159328 C 7.978455 2.276801 8.655894 2.621974 8.963445 2.845422 C 9.270996 3.068871 9.808614 3.606490 10.032063 3.914040 C 10.255512 4.221591 10.600684 4.899030 10.718158 5.260577 C 10.835632 5.622125 10.954570 6.373072 10.954570 6.753225 L 10.954570 234.110912 C 10.954570 234.300696 10.924790 234.679093 10.895101 234.866540 C 10.865413 235.053987 10.776805 235.423066 10.718159 235.603561 C 10.659513 235.784056 10.514259 236.134730 10.428099 236.303829 C 10.341939 236.472927 10.143616 236.796561 10.032064 236.950100 C 9.920513 237.103638 9.674004 237.392263 9.539807 237.526460 C 9.405609 237.660657 9.116984 237.907167 8.963446 238.018719 C 8.809908 238.130271 8.486274 238.328594 8.317176 238.414754 C 8.148078 238.500914 7.797404 238.646168 7.616909 238.704814 C 7.436414 238.763461 7.067334 238.852069 6.879887 238.881758 C 6.692440 238.911446 6.314044 238.941227 6.124260 238.941227 Z" transform="scale(1.000000,1.000000) translate(106.000000,72.000000)" fill="#3ebbd3" opacity="1.000000"></path>
        <path d="M 5.848924 237.956865 C 5.468770 237.956865 4.717823 237.837927 4.356276 237.720453 C 3.994728 237.602979 3.317290 237.257807 3.009739 237.034358 C 2.702188 236.810910 2.164570 236.273291 1.941121 235.965741 C 1.717672 235.658190 1.372500 234.980751 1.255026 234.619203 C 1.137552 234.257656 1.018614 233.506709 1.018614 233.126556 L 1.018614 5.768864 C 1.046100 5.406040 1.208552 4.696676 1.341706 4.358051 C 1.474860 4.019426 1.839082 3.389402 2.066086 3.105032 C 2.293090 2.820662 2.826753 2.325898 3.127458 2.121023 C 3.428163 1.916149 4.083900 1.600559 4.431616 1.493365 C 4.779331 1.386171 5.498940 1.277767 5.862804 1.277767 C 6.226668 1.277767 6.946276 1.386171 7.293992 1.493365 C 7.641708 1.600559 8.297445 1.916149 8.598150 2.121023 C 8.898855 2.325898 9.432518 2.820662 9.659522 3.105032 C 9.886526 3.389402 10.250747 4.019426 10.383901 4.358051 C 10.517056 4.696676 10.679508 5.406040 10.706994 5.768864 L 10.706994 233.126551 C 10.706997 233.317032 10.677005 233.696810 10.647102 233.884929 C 10.617199 234.073048 10.527951 234.443408 10.468884 234.624498 C 10.409817 234.805589 10.263528 235.157344 10.176761 235.326915 C 10.089994 235.496486 9.890293 235.820910 9.777979 235.974755 C 9.665665 236.128601 9.417505 236.417648 9.282430 236.551951 C 9.147354 236.686255 8.856891 236.932755 8.702404 237.044185 C 8.547918 237.155616 8.222355 237.353455 8.052289 237.439249 C 7.882224 237.525043 7.529637 237.669313 7.348211 237.727342 C 7.166784 237.785371 6.795919 237.872495 6.607632 237.901319 C 6.419345 237.930144 6.039401 237.957960 5.848924 237.956865 Z" transform="scale(1.000000,1.000000) translate(58.000000,48.000000)" fill="#3ebbd3" opacity="1.000000"></path>
        <path d="M 15.866909 14.418078 C 15.851488 15.119480 15.669763 16.510805 15.504514 17.192637 C 15.339266 17.874469 14.863841 19.194613 14.556429 19.825248 C 14.249018 20.455883 13.501947 21.643610 13.066631 22.193794 C 12.631316 22.743979 11.647253 23.744193 11.104227 24.188406 C 10.561202 24.632620 9.385793 25.398925 8.760246 25.716562 C 8.420741 25.922349 7.736135 26.324547 7.391100 26.520921 C 7.046064 26.717294 6.350658 27.100515 6.000353 27.287326 C 5.650048 27.474138 4.944367 27.838091 4.589058 28.015199 C 4.233748 28.192307 3.518326 28.536718 3.158281 28.703989 C 2.798235 28.871259 2.073613 29.195867 1.709104 29.353174 L 1.709104 1.898136 C 11.092127 3.147340 15.866909 7.283656 15.866909 14.418078 Z" transform="scale(1.000000,1.000000) translate(108.000000,156.000000)" fill="#3ebbd3" opacity="1.000000"></path>
        <path d="M 60.518303 33.226019 Q 39.698001 33.226019 39.698001 47.661428 C 39.699175 47.857196 39.709409 48.248607 39.718468 48.444170 C 39.727527 48.639733 39.753522 49.030414 39.770452 49.225453 C 39.787382 49.420492 39.829095 49.809808 39.853868 50.004007 C 39.878642 50.198206 39.936005 50.585526 39.968582 50.778569 C 40.001159 50.971611 40.074079 51.356306 40.114406 51.547880 L 40.530812 54.046316 L 2.887707 54.046316 L 2.249218 50.715068 C 2.130093 50.083808 1.914352 48.817247 1.817770 48.182147 C 1.721189 47.547047 1.550665 46.273610 1.476750 45.635475 C 1.402835 44.997339 1.277744 43.718640 1.226589 43.078278 C 1.175434 42.437916 1.095936 41.155574 1.067606 40.513797 C 1.039275 39.872021 1.005470 38.587662 1.000000 37.945283 Q 1.000000 22.454980 9.994370 13.682693 Q 22.125665 1.940043 55.188305 1.967804 C 59.407886 1.967804 63.349864 2.162127 67.153038 2.467492 L 67.153038 33.697941 C 66.823496 33.651109 66.163162 33.566702 65.832436 33.529135 C 65.501709 33.491568 64.839267 33.425722 64.507616 33.397450 C 64.175966 33.369178 63.511937 33.321946 63.179623 33.302991 C 62.847310 33.284036 62.182217 33.255456 61.849503 33.245833 C 61.516789 33.236210 60.851156 33.226303 60.518303 33.226019 Z" transform="scale(1.000000,1.000000) translate(-1.000000,89.000000)" fill="#3ebbd3" opacity="1.000000"></path>
        <path d="M 51.761108 49.198336 Q 39.130128 58.525832 14.423366 58.525832 C 9.926181 58.525832 5.734360 58.303749 1.709103 57.942864 L 1.709103 26.795693 C 2.007761 26.828153 2.605729 26.886766 2.905005 26.912916 C 3.204282 26.939066 3.803353 26.985047 4.103115 27.004876 C 4.402877 27.024704 5.002785 27.058032 5.302899 27.071530 C 5.603012 27.085028 6.203490 27.105689 6.503822 27.112850 C 6.804153 27.120012 7.404934 27.127996 7.705350 27.128817 C 19.586802 27.128817 25.499767 22.603872 25.499767 13.526220 C 25.522177 12.860062 25.461274 11.528385 25.378152 10.867053 C 25.295029 10.205722 25.024489 8.900393 24.837923 8.260502 C 24.651356 7.620610 24.177975 6.374421 23.892650 5.772044 C 23.607326 5.169667 22.942996 4.013924 22.566081 3.464194 C 22.189166 2.914463 21.350577 1.878199 20.891540 1.394925 L 57.923910 1.394925 L 59.617295 3.921122 C 59.841128 4.282625 60.264820 5.019935 60.464452 5.395344 C 60.664083 5.770754 61.038486 6.534275 61.213056 6.921974 C 61.387626 7.309673 61.711127 8.096114 61.859883 8.494431 C 62.008639 8.892749 62.279842 9.698720 62.402143 10.105940 C 62.524445 10.513160 62.742182 11.335188 62.837501 11.749555 C 62.997275 12.316351 63.285064 13.458419 63.412967 14.033246 C 63.540869 14.608074 63.764492 15.764419 63.860125 16.345487 C 63.955759 16.926555 64.114519 18.093575 64.177585 18.679074 C 64.240650 19.264572 64.334054 20.438632 64.364355 21.026737 C 64.394657 21.614842 64.422412 22.792285 64.419855 23.381164 C 64.478665 24.879378 64.299481 27.872755 64.062365 29.353254 C 63.825250 30.833754 63.060617 33.733365 62.536846 35.138273 C 62.013074 36.543181 60.692884 39.235673 59.902933 40.510066 C 59.112982 41.784460 57.288846 44.164573 56.263596 45.258633 C 55.238347 46.352692 52.981575 48.327381 51.761108 49.198336 Z" transform="scale(1.000000,1.000000) translate(108.000000,206.000000)" fill="#3ebbd3" opacity="1.000000"></path>
        <path d="M 1.298483 44.292643 C 1.261139 43.177333 1.349467 40.947213 1.474902 39.838351 C 1.600337 38.729489 2.012414 36.535991 2.297955 35.457207 C 2.583497 34.378423 3.310540 32.268293 3.750102 31.242577 C 4.189665 30.216860 5.216181 28.235068 5.800397 27.284278 C 6.384613 26.333488 7.688726 24.522266 8.405146 23.666665 C 9.098148 22.855984 10.563779 21.306227 11.334562 20.569104 C 12.105344 19.831981 13.718957 18.436962 14.559753 17.780825 C 15.400550 17.124687 17.145886 15.898463 18.048225 15.329921 C 18.950564 14.761380 20.810037 13.716304 21.764828 13.241087 C 22.719618 12.765870 24.674493 11.912474 25.672115 11.535370 C 32.445653 8.953652 39.191430 6.705060 45.964968 4.734071 C 46.486325 4.586654 47.524829 4.277312 48.041874 4.115417 C 48.558919 3.953523 49.588395 3.615350 50.100726 3.439105 C 50.613057 3.262860 51.632706 2.896119 52.139924 2.705660 C 52.647143 2.515201 53.656172 2.120178 54.157884 1.915653 C 54.659596 1.711128 55.657220 1.288130 56.153035 1.069698 L 56.153035 35.770200 C 55.671834 35.935790 54.716022 36.285536 54.241591 36.469626 C 53.767159 36.653717 52.825600 37.040195 52.358649 37.242510 C 51.891698 37.444825 50.965803 37.867455 50.507032 38.087692 C 50.048262 38.307929 49.139418 38.766079 48.689516 39.003907 C 48.239613 39.241735 47.349183 39.734718 46.908822 39.989781 C 46.277082 40.297003 45.089530 41.047763 44.541041 41.486671 C 43.992552 41.925579 42.999679 42.919623 42.561419 43.468630 C 42.123158 44.017636 41.373799 45.206072 41.067322 45.838174 C 40.760845 46.470275 40.291857 47.794651 40.132238 48.478758 C 39.972619 49.162864 39.807069 50.558040 39.802159 51.260504 C 39.802159 59.366541 45.354240 63.974768 56.153035 65.140705 L 56.153035 96.315640 Q 1.354005 91.485325 1.298483 44.292643 Z" transform="scale(1.000000,1.000000) translate(10.000000,149.000000)" fill="#3ebbd3" opacity="1.000000"></path>
        <path d="M 8.760253 56.143597 C 9.385800 55.825961 10.561208 55.059655 11.104234 54.615442 C 11.647260 54.171229 12.631323 53.171014 13.066638 52.620830 C 13.501953 52.070645 14.249024 50.882919 14.556436 50.252284 C 14.863848 49.621649 15.339273 48.301505 15.504521 47.619673 C 15.669770 46.937840 15.851495 45.546515 15.866915 44.845113 C 15.866915 37.710691 11.092126 33.574391 1.709111 32.325172 L 1.709111 1.011438 C 17.754623 2.343938 30.108000 6.563519 38.685965 13.337057 Q 54.592675 26.217883 54.592675 52.784587 C 54.640901 53.939948 54.569632 56.251585 54.450323 57.401780 C 54.331014 58.551976 53.926304 60.829025 53.641967 61.949889 C 53.357630 63.070754 52.627982 65.265374 52.184590 66.333357 C 51.741199 67.401341 50.701944 69.467421 50.108813 70.460085 C 49.515683 71.452749 48.188655 73.346882 47.458248 74.243370 C 46.766671 75.051573 45.299681 76.592296 44.526336 77.322646 C 43.752991 78.052995 42.130961 79.429551 41.284562 80.073818 C 40.438163 80.718085 38.679366 81.914966 37.769448 82.465893 C 36.859529 83.016819 34.983781 84.020541 34.020595 84.471920 C 33.057408 84.923300 31.085840 85.722554 30.080236 86.069301 C 29.076256 86.418692 27.061196 87.096725 26.050222 87.425331 C 25.039249 87.753938 23.010631 88.390260 21.993094 88.697942 C 20.975557 89.005625 18.934245 89.599966 17.910578 89.886593 C 16.886911 90.173221 14.833773 90.725328 13.804411 90.990778 C 12.775050 91.256229 10.710960 91.765867 9.676342 92.010028 C 9.270735 92.108479 8.461616 92.313818 8.058147 92.420694 C 7.654678 92.527570 6.850010 92.749712 6.448854 92.864966 C 6.047698 92.980221 5.247830 93.219070 4.849161 93.342652 C 4.450492 93.466235 3.655771 93.721688 3.259762 93.853545 C 2.863753 93.985402 2.074523 94.257348 1.681346 94.397422 L 1.681346 59.780203 C 2.047276 59.623070 2.774732 59.298738 3.136189 59.131571 C 3.497646 58.964404 4.215879 58.620129 4.572587 58.443055 C 4.929295 58.265981 5.637758 57.902026 5.989446 57.715180 C 6.341134 57.528334 7.039289 57.144976 7.385689 56.948500 C 7.732089 56.752024 8.419404 56.349554 8.760253 56.143597 Z" transform="scale(1.000000,1.000000) translate(108.000000,109.000000)" fill="#3ebbd3" opacity="1.000000"></path>
        <path d="M 117.541260 121.097121 Q 119.549254 115.073138 119.549254 105.104879 Q 119.549254 95.136620 117.110975 85.957216 Q 114.672696 76.777812 109.724424 68.530691 Q 104.776151 60.283571 95.955318 55.191870 Q 87.134485 50.100170 75.660230 50.100170 Q 58.448848 50.100170 52.711720 59.709858 Q 42.384891 50.100170 29.619782 50.100170 Q 12.408400 50.100170 5.954132 57.415007 Q 1.651286 62.291565 1.651286 71.901254 Q 1.651286 76.921240 2.798712 83.088652 L 9.539836 121.097121 L 33.922628 121.097121 L 27.181503 82.945224 Q 26.751219 80.793801 26.751219 79.072663 Q 26.751219 70.897256 35.213482 70.897256 Q 41.094037 70.897256 44.106029 75.988957 Q 47.118021 81.080658 49.269444 93.845766 L 54.146002 121.097121 L 78.528794 121.097121 L 71.787669 82.945224 Q 71.357384 80.793801 71.357384 79.072663 Q 71.357384 70.897256 79.819647 70.897256 Q 94.736178 70.897256 94.736178 102.164601 Q 94.736178 109.479438 93.588753 118.371986 L 93.158468 121.097121 Z M 157.988008 70.466972 Q 161.286856 70.466972 163.868564 71.901254 L 163.151423 55.693869 Q 156.410298 50.100170 147.804607 50.100170 Q 134.752642 50.100170 130.880081 56.124153 Q 128.298374 60.140143 128.298374 64.658130 Q 128.298374 69.176118 128.872087 72.618395 L 137.477778 121.097121 L 161.860569 121.097121 L 153.828591 75.917243 Q 153.685163 75.056674 153.685163 74.339533 Q 153.685163 70.466972 157.988008 70.466972 Z M 140.346341 144.475915 Q 140.346341 153.655319 144.434045 157.886451 Q 148.521748 162.117582 157.127439 162.117582 Q 169.175407 162.117582 169.175407 151.503897 Q 169.175407 142.467921 165.087703 138.308504 Q 161.000000 134.149086 152.250881 134.149086 Q 140.346341 134.149086 140.346341 144.475915 Z M 235.008944 49.526457 Q 235.008944 28.585942 224.323544 15.175407 Q 213.638144 1.764871 195.351050 1.764871 Q 177.063957 1.764871 171.039973 10.800847 Q 167.310840 16.537974 167.310840 24.785095 Q 167.310840 33.032216 168.745122 41.207622 L 187.103930 145.049628 L 211.486721 145.049628 L 207.183876 121.097121 L 242.897494 121.097121 L 239.311789 100.873747 L 211.199865 100.873747 Q 221.383266 92.698341 228.196105 79.646376 Q 235.008944 66.594411 235.008944 49.526457 Z M 199.008469 22.275102 Q 203.454743 22.275102 206.610163 29.446511 Q 209.765583 36.617920 209.765583 48.307317 Q 209.765583 59.996714 207.399018 71.901254 Q 205.032453 83.805793 201.733605 90.546918 L 193.127913 41.351050 Q 192.267344 36.331064 192.267344 32.601931 Q 192.267344 22.275102 199.008469 22.275102 Z M 277.750543 50.100170 Q 261.112873 50.100170 253.798036 57.558435 Q 248.347765 63.008706 248.347765 72.188110 Q 248.347765 75.200102 248.921478 78.642378 L 258.674594 134.149086 L 284.921952 145.049628 L 280.762535 121.097121 L 320.348714 121.097121 L 316.763009 100.873747 L 277.176830 100.873747 L 274.308266 84.666362 Q 273.734554 81.941227 273.734554 79.789804 Q 273.734554 70.753828 282.340245 70.753828 Q 286.929947 70.753828 290.013653 74.626389 Q 293.097359 78.498950 294.244784 84.953219 L 318.053863 84.953219 Q 312.029879 50.100170 277.750543 50.100170 Z" transform="scale(1.000000,1.000000) translate(183.000000,131.000000)" opacity="1.000000"></path>
        <path d="M 60.011043 111.726559 Q 74.640718 111.726559 80.234417 103.981437 Q 84.250406 98.674594 84.250406 90.499188 Q 84.250406 87.200339 83.533265 83.471206 L 80.664702 66.690109 Q 78.226422 53.064431 70.194444 45.964736 Q 62.162466 38.865041 50.114498 38.865041 Q 38.066531 38.865041 33.333400 45.319309 L 25.588278 1.000000 L 1.205487 1.000000 L 20.424864 109.861993 L 42.512804 109.861993 L 41.795663 105.989432 Q 48.536788 111.726559 60.011043 111.726559 Z M 45.094512 59.518700 Q 49.110501 59.518700 52.552777 62.100407 Q 55.995054 64.682114 56.855623 69.845529 L 58.720189 80.602643 Q 59.007046 82.036925 59.007046 84.188347 Q 59.007046 86.339770 57.142479 88.778049 Q 55.277913 91.216328 50.688211 91.216328 Q 43.229945 91.216328 40.935094 87.630624 L 36.632249 63.534689 Q 38.640243 59.518700 45.094512 59.518700 Z M 119.533740 62.960976 Q 119.533740 59.231843 123.334587 59.231843 Q 127.135434 59.231843 129.717141 60.666125 L 129.000000 44.458740 Q 122.115447 38.865041 113.509756 38.865041 Q 100.457791 38.865041 96.585230 44.889025 Q 94.146951 48.761586 94.146951 53.351288 Q 94.146951 57.940990 94.720664 61.383266 L 110.354336 149.735028 L 134.737127 149.735028 L 119.677168 64.682114 Q 119.533740 63.821545 119.533740 62.960976 Z M 168.873035 59.231843 Q 172.171884 59.231843 174.753591 60.666125 L 174.036450 44.458740 Q 167.295325 38.865041 158.689634 38.865041 Q 145.637669 38.865041 141.765108 44.889025 Q 139.183401 48.905014 139.183401 53.423002 Q 139.183401 57.940990 139.757114 61.383266 L 148.362805 109.861993 L 172.745596 109.861993 L 164.713618 64.682114 Q 164.570190 63.821545 164.570190 63.104404 Q 164.570190 59.231843 168.873035 59.231843 Z M 151.231369 133.240787 Q 151.231369 142.420191 155.319072 146.651322 Q 159.406775 150.882453 168.012466 150.882453 Q 180.060434 150.882453 180.060434 140.268768 Q 180.060434 131.232792 175.972731 127.073375 Q 171.885027 122.913957 163.135908 122.913957 Q 151.231369 122.913957 151.231369 133.240787 Z M 214.196342 38.865041 Q 197.558673 38.865041 190.243835 46.323307 Q 184.793564 51.773578 184.793564 60.952981 Q 184.793564 63.964973 185.367277 67.407250 L 195.120393 122.913957 L 221.367751 133.814499 L 217.208334 109.861993 L 256.794513 109.861993 L 253.208808 89.638618 L 213.622629 89.638618 L 210.754066 73.431234 Q 210.180353 70.706098 210.180353 68.554675 Q 210.180353 59.518700 218.786044 59.518700 Q 223.375746 59.518700 226.459452 63.391261 Q 229.543158 67.263822 230.690583 73.718090 L 254.499662 73.718090 Q 248.475678 38.865041 214.196342 38.865041 Z" transform="scale(1.000000,1.000000) translate(140.000000,-1.000000)" opacity="1.000000"></path>
    </g>
</svg>